<svg width="40" height="40" viewBox="0 0 40 40" fill="none" xmlns="http://www.w3.org/2000/svg">
<g id="majesticons:community">
<g id="Group">
<path id="Vector" fill-rule="evenodd" clip-rule="evenodd" d="M10 10C10 8.67392 10.5268 7.40215 11.4645 6.46447C12.4021 5.52678 13.6739 5 15 5H31.6667C32.9927 5 34.2645 5.52678 35.2022 6.46447C36.1399 7.40215 36.6667 8.67392 36.6667 10V30C36.6667 31.3261 36.1399 32.5979 35.2022 33.5355C34.2645 34.4732 32.9927 35 31.6667 35H25.8167C26.3747 34.0314 26.6679 32.9329 26.6667 31.815V22.7517C26.6651 21.8918 26.4914 21.041 26.1559 20.2492C25.8205 19.4575 25.33 18.7409 24.7133 18.1417L18.0467 11.6233C15.8667 9.49 12.55 9.145 10 10.585V10ZM28.3333 11.6667C28.3333 11.2246 28.5089 10.8007 28.8215 10.4882C29.134 10.1756 29.558 10 30 10C30.442 10 30.8676 10.1756 31.1802 10.4882C31.4927 10.8007 31.6683 11.2246 31.6683 11.6667C31.6683 12.1087 31.4927 12.5326 31.1802 12.8452C30.8676 13.1577 30.4437 13.3333 30.0017 13.3333C29.5596 13.3333 29.134 13.1577 28.8215 12.8452C28.5089 12.5326 28.3333 12.1087 28.3333 11.6667ZM23.3333 10C22.8913 10 22.4674 10.1756 22.1548 10.4882C21.8423 10.8007 21.6667 11.2246 21.6667 11.6667C21.6667 12.1087 21.8423 12.5326 22.1548 12.8452C22.4674 13.1577 22.8913 13.3333 23.3333 13.3333H23.335C23.777 13.3333 24.201 13.1577 24.5135 12.8452C24.8261 12.5326 25.0017 12.1087 25.0017 11.6667C25.0017 11.2246 24.8261 10.8007 24.5135 10.4882C24.201 10.1756 23.777 10 23.335 10H23.3333ZM28.3333 20C28.3333 19.558 28.5089 19.134 28.8215 18.8215C29.134 18.5089 29.558 18.3333 30 18.3333C30.442 18.3333 30.8676 18.5089 31.1802 18.8215C31.4927 19.134 31.6683 19.558 31.6683 20C31.6683 20.442 31.4927 20.8659 31.1802 21.1785C30.8676 21.4911 30.4437 21.6667 30.0017 21.6667C29.5596 21.6667 29.134 21.4911 28.8215 21.1785C28.5089 20.8659 28.3333 20.442 28.3333 20ZM30 26.6667C29.558 26.6667 29.134 26.8423 28.8215 27.1548C28.5089 27.4674 28.3333 27.8913 28.3333 28.3333C28.3333 28.7754 28.5089 29.1993 28.8215 29.5118C29.134 29.8244 29.558 30 30 30C30.442 30 30.8676 29.8244 31.1802 29.5118C31.4927 29.1993 31.6683 28.7754 31.6683 28.3333C31.6683 27.8913 31.4927 27.4674 31.1802 27.1548C30.8676 26.8423 30.442 26.6667 30 26.6667Z" fill="#EF6C10"/>
<path id="Vector_2" fill-rule="evenodd" clip-rule="evenodd" d="M9.79825 14.5118C10.7359 13.5744 12.0074 13.0479 13.3333 13.0479C14.6591 13.0479 15.9306 13.5744 16.8683 14.5118L21.8683 19.5118C22.806 20.4492 23.333 21.7208 23.3333 23.0468V30.0001C23.3333 31.3262 22.8065 32.598 21.8688 33.5357C20.9311 34.4733 19.6593 35.0001 18.3333 35.0001H14.9999V30.0001C14.9999 29.5581 14.8243 29.1342 14.5118 28.8216C14.1992 28.509 13.7753 28.3335 13.3333 28.3335C12.8912 28.3335 12.4673 28.509 12.1547 28.8216C11.8422 29.1342 11.6666 29.5581 11.6666 30.0001V35.0001H8.33325C7.00717 35.0001 5.7354 34.4733 4.79772 33.5357C3.86004 32.598 3.33325 31.3262 3.33325 30.0001V23.0468C3.33398 21.7214 3.86091 20.4505 4.79825 19.5135L9.79825 14.5135V14.5118Z" fill="#EF6C10"/>
</g>
</g>
</svg>
