<svg width="56" height="56" viewBox="0 0 56 56" fill="none" xmlns="http://www.w3.org/2000/svg">
<g id="shield-checkmark">
<path id="Vector" d="M52.3983 12.18C52.3735 11.7891 52.2184 11.4178 51.9576 11.1255C51.6969 10.8332 51.3456 10.6368 50.96 10.5678C41.499 8.87033 37.5495 7.64314 28.7208 3.65533C28.4943 3.55295 28.2485 3.5 28 3.5C27.7514 3.5 27.5057 3.55295 27.2792 3.65533C18.4505 7.64314 14.5009 8.87033 5.03999 10.5678C4.6544 10.6368 4.30312 10.8332 4.04235 11.1255C3.78159 11.4178 3.62643 11.7891 3.6017 12.18C3.18061 18.8639 4.07858 25.0917 6.27374 30.6906C8.07134 35.2576 10.7317 39.4356 14.1094 42.9964C19.9576 49.2013 26.1669 51.8963 27.3514 52.3731C27.7723 52.5434 28.243 52.5434 28.6639 52.3731C29.8484 51.8963 36.0576 49.2013 41.9059 42.9964C45.2781 39.4343 47.9332 35.2564 49.7262 30.6906C51.9214 25.0917 52.8194 18.8639 52.3983 12.18ZM38.0701 20.3952L25.9514 34.3952C25.7956 34.5757 25.6045 34.7225 25.3899 34.8265C25.1753 34.9305 24.9417 34.9896 24.7034 35H24.6312C24.1732 35.0001 23.7334 34.8207 23.4062 34.5002L18.025 29.2283C17.8608 29.0674 17.7299 28.8758 17.6398 28.6643C17.5497 28.4529 17.5021 28.2258 17.4998 27.9959C17.4951 27.5317 17.6749 27.0847 17.9998 26.7531C18.3247 26.4216 18.768 26.2327 19.2322 26.2279C19.6964 26.2232 20.1434 26.4031 20.475 26.728L24.5219 30.6972L35.4265 18.1049C35.5769 17.9311 35.7601 17.7886 35.9655 17.6856C36.171 17.5826 36.3947 17.521 36.6239 17.5045C36.8531 17.4879 37.0834 17.5167 37.3015 17.5891C37.5196 17.6615 37.7213 17.7762 37.8951 17.9266C38.0689 18.077 38.2114 18.2601 38.3144 18.4656C38.4174 18.671 38.479 18.8947 38.4955 19.124C38.5121 19.3532 38.4833 19.5834 38.4109 19.8015C38.3385 20.0197 38.2238 20.2214 38.0734 20.3952H38.0701Z" fill="#202AE0"/>
</g>
</svg>
