<svg width="56" height="56" viewBox="0 0 56 56" fill="none" xmlns="http://www.w3.org/2000/svg">
<g id="airplane">
<path id="Vector" d="M20.4114 50.75H17.4999C17.2073 50.7499 16.9194 50.6765 16.6626 50.5364C16.4058 50.3963 16.1881 50.1941 16.0296 49.9482C15.8711 49.7024 15.7767 49.4207 15.7552 49.1289C15.7336 48.8371 15.7856 48.5446 15.9063 48.2781L22.9566 32.7195L12.3702 32.4844L8.50923 37.1623C7.77313 38.0877 7.18579 38.5 5.68735 38.5H3.72735C3.41702 38.51 3.10886 38.445 2.82898 38.3106C2.5491 38.1762 2.30574 37.9763 2.11954 37.7278C1.85923 37.3767 1.60329 36.7817 1.85267 35.933L4.02048 28.1673C4.03688 28.1094 4.05657 28.0514 4.07845 27.9945C4.07954 27.9891 4.07954 27.9835 4.07845 27.9781C4.05586 27.9213 4.0365 27.8632 4.02048 27.8042L1.85048 19.9894C1.61532 19.157 1.87235 18.5752 2.13048 18.2328C2.30381 18.0028 2.52869 17.8167 2.78704 17.6894C3.04539 17.5622 3.32999 17.4973 3.61798 17.5H5.68735C6.80626 17.5 7.89235 18.002 8.5311 18.8125L12.3122 23.4117L22.9566 23.2542L15.9084 7.72297C15.7876 7.45659 15.7355 7.16416 15.7568 6.87243C15.7781 6.5807 15.8722 6.29896 16.0305 6.05298C16.1888 5.807 16.4062 5.60462 16.6629 5.46435C16.9196 5.32408 17.2073 5.25038 17.4999 5.25H20.4431C20.8538 5.25825 21.2572 5.3589 21.6236 5.54446C21.99 5.73002 22.3099 5.99574 22.5595 6.32187L36.2369 22.9469L42.5555 22.7806C43.0181 22.7555 44.3 22.7467 44.5964 22.7467C50.6405 22.75 54.2499 24.7122 54.2499 28C54.2499 29.0347 53.8364 30.9531 51.0703 32.1737C49.4374 32.8956 47.2586 33.2609 44.5942 33.2609C44.3011 33.2609 43.0225 33.2522 42.5533 33.227L36.2358 33.0586L22.5245 49.6836C22.2747 50.0083 21.9551 50.2727 21.5893 50.4573C21.2236 50.6419 20.821 50.7419 20.4114 50.75Z" fill="#03052F"/>
</g>
</svg>
