<svg width="56" height="56" viewBox="0 0 56 56" fill="none" xmlns="http://www.w3.org/2000/svg">
<g id="basil:document-solid">
<path id="Vector" fill-rule="evenodd" clip-rule="evenodd" d="M33.2494 5.83333C33.2494 5.67862 33.1879 5.53025 33.0785 5.42085C32.9691 5.31146 32.8207 5.25 32.666 5.25H16.3327C14.6309 5.25 12.9988 5.92604 11.7954 7.1294C10.5921 8.33276 9.91602 9.96486 9.91602 11.6667V44.3333C9.91602 46.0351 10.5921 47.6672 11.7954 48.8706C12.9988 50.074 14.6309 50.75 16.3327 50.75H39.666C41.3678 50.75 42.9999 50.074 44.2033 48.8706C45.4066 47.6672 46.0827 46.0351 46.0827 44.3333V21.343C46.0827 21.1883 46.0212 21.0399 45.9118 20.9305C45.8024 20.8211 45.6541 20.7597 45.4994 20.7597H34.9994C34.5352 20.7597 34.0901 20.5753 33.7619 20.2471C33.4337 19.9189 33.2494 19.4738 33.2494 19.0097V5.83333ZM34.9994 28.5833C35.4635 28.5833 35.9086 28.7677 36.2368 29.0959C36.565 29.4241 36.7494 29.8692 36.7494 30.3333C36.7494 30.7975 36.565 31.2426 36.2368 31.5708C35.9086 31.899 35.4635 32.0833 34.9994 32.0833H20.9993C20.5352 32.0833 20.0901 31.899 19.7619 31.5708C19.4337 31.2426 19.2493 30.7975 19.2493 30.3333C19.2493 29.8692 19.4337 29.4241 19.7619 29.0959C20.0901 28.7677 20.5352 28.5833 20.9993 28.5833H34.9994ZM34.9994 37.9167C35.4635 37.9167 35.9086 38.101 36.2368 38.4292C36.565 38.7574 36.7494 39.2025 36.7494 39.6667C36.7494 40.1308 36.565 40.5759 36.2368 40.9041C35.9086 41.2323 35.4635 41.4167 34.9994 41.4167H20.9993C20.5352 41.4167 20.0901 41.2323 19.7619 40.9041C19.4337 40.5759 19.2493 40.1308 19.2493 39.6667C19.2493 39.2025 19.4337 38.7574 19.7619 38.4292C20.0901 38.101 20.5352 37.9167 20.9993 37.9167H34.9994Z" fill="#03052F"/>
<path id="Vector_2" d="M36.75 6.58933C36.75 6.16 37.2003 5.887 37.534 6.15533C37.8163 6.384 38.0707 6.65 38.2877 6.95333L45.318 16.7463C45.4767 16.9703 45.304 17.2597 45.0287 17.2597H37.3333C37.1786 17.2597 37.0303 17.1982 36.9209 17.0888C36.8115 16.9794 36.75 16.831 36.75 16.6763V6.58933Z" fill="#03052F"/>
</g>
</svg>
