<svg width="56" height="56" viewBox="0 0 56 56" fill="none" xmlns="http://www.w3.org/2000/svg">
<g id="car-sport">
<path id="Vector" d="M54.06 30.2116C53.6663 25.7917 53.0177 24.9309 52.7727 24.6072C52.2094 23.8591 51.3081 23.3702 50.3544 22.8572C50.3005 22.8287 50.2539 22.788 50.2183 22.7384C50.1828 22.6888 50.1593 22.6316 50.1497 22.5714C50.14 22.5111 50.1445 22.4495 50.1627 22.3913C50.181 22.3331 50.2125 22.2799 50.2549 22.2359C50.4315 22.0568 50.5672 21.8416 50.6528 21.605C50.7383 21.3684 50.7716 21.1161 50.7503 20.8655C50.7092 20.421 50.5025 20.0082 50.1713 19.709C49.84 19.4097 49.4084 19.2459 48.962 19.25H47.2558C47.1827 19.2504 47.1096 19.2552 47.037 19.2642C46.9872 19.2426 46.9356 19.2254 46.8828 19.2128C45.8722 17.0767 44.4886 14.152 41.6208 12.7247C37.3672 10.6094 29.5316 10.5 28.0003 10.5C26.4691 10.5 18.6335 10.6094 14.3853 12.7214C11.5175 14.1487 10.1339 17.0734 9.12329 19.2095L9.11454 19.227C9.06414 19.2341 9.01464 19.2466 8.96689 19.2642C8.89431 19.2552 8.82127 19.2504 8.74814 19.25H7.03861C6.59224 19.2459 6.16063 19.4097 5.82939 19.709C5.49815 20.0082 5.29146 20.421 5.25033 20.8655C5.2309 21.1155 5.2657 21.3669 5.35234 21.6023C5.43898 21.8377 5.57543 22.0516 5.75236 22.2294C5.79468 22.2733 5.82622 22.3265 5.84448 22.3847C5.86274 22.4429 5.86722 22.5046 5.85756 22.5648C5.84791 22.6251 5.82439 22.6822 5.78886 22.7318C5.75333 22.7814 5.70676 22.8221 5.65283 22.8506C4.69908 23.3669 3.79345 23.8558 3.23454 24.6006C2.98954 24.9288 2.34204 25.7852 1.9472 30.205C1.72845 32.6922 1.69564 35.2669 1.86736 36.925C2.2272 40.3703 2.90204 42.4528 2.93048 42.5392C3.03404 42.8537 3.22466 43.1323 3.48021 43.3427C3.73576 43.5532 4.04577 43.6868 4.37423 43.7281V43.75C4.37423 44.2141 4.55861 44.6592 4.8868 44.9874C5.21498 45.3156 5.6601 45.5 6.12423 45.5H12.2492C12.7134 45.5 13.1585 45.3156 13.4867 44.9874C13.8149 44.6592 13.9992 44.2141 13.9992 43.75C14.941 43.75 15.5961 43.5816 16.2906 43.4022C17.2934 43.132 18.3183 42.9523 19.3531 42.8652C22.6902 42.5469 26.0086 42.4375 28.0003 42.4375C29.9516 42.4375 33.4166 42.5469 36.7591 42.8652C37.798 42.9525 38.827 43.1329 39.8336 43.4044C40.4986 43.575 41.1297 43.7325 42.0036 43.7489C42.0036 44.213 42.188 44.6582 42.5162 44.9863C42.8444 45.3145 43.2895 45.4989 43.7536 45.4989H49.8786C50.3427 45.4989 50.7879 45.3145 51.116 44.9863C51.4442 44.6582 51.6286 44.213 51.6286 43.7489V43.7358C51.9579 43.6952 52.2688 43.562 52.5252 43.3515C52.7816 43.141 52.9729 42.8619 53.0767 42.5469C53.1052 42.4605 53.78 40.378 54.1399 36.9327C54.3116 35.2734 54.281 32.7031 54.06 30.2116ZM12.2864 20.7058C13.1614 18.8464 14.1622 16.742 15.9439 15.855C18.5186 14.5731 23.855 13.9956 28.0003 13.9956C32.1456 13.9956 37.482 14.5688 40.0567 15.855C41.8385 16.742 42.8349 18.8475 43.7142 20.7058L43.8236 20.9431C43.8876 21.0782 43.9158 21.2275 43.9057 21.3766C43.8956 21.5258 43.8475 21.6699 43.7659 21.7951C43.6843 21.9204 43.5719 22.0226 43.4396 22.0921C43.3072 22.1617 43.1593 22.1961 43.0099 22.1922C39.3753 22.0937 31.7191 21.7787 28.0003 21.7787C24.2816 21.7787 16.6253 22.1014 12.9853 22.1998C12.8359 22.2038 12.6879 22.1693 12.5556 22.0998C12.4232 22.0303 12.3109 21.928 12.2293 21.8028C12.1477 21.6775 12.0996 21.5334 12.0894 21.3843C12.0793 21.2352 12.1076 21.0859 12.1716 20.9508C12.2099 20.8698 12.2503 20.7878 12.2864 20.7058ZM13.5913 29.4153C11.7098 29.6418 9.8163 29.7535 7.92126 29.75C6.76189 29.75 5.56642 29.4219 5.34439 28.3894C5.19236 27.6948 5.20876 27.3044 5.29079 26.9117C5.3597 26.5781 5.46908 26.3353 6.01595 26.25C7.43783 26.0312 8.23298 26.3058 10.5605 26.9916C12.1038 27.4455 13.2172 28.0503 13.8516 28.5294C14.1699 28.7656 14.0003 29.3825 13.5913 29.4153ZM37.8047 38.3841C36.3653 38.5481 33.4866 38.488 28.0331 38.488C22.5797 38.488 19.702 38.5481 18.2627 38.3841C16.7774 38.2189 14.8841 36.8145 16.1769 35.5633C17.0377 34.7386 19.0458 34.1217 21.72 33.775C24.3942 33.4283 25.5263 33.25 28.0222 33.25C30.5181 33.25 31.5353 33.3594 34.3244 33.7761C37.1135 34.1928 39.2211 34.8173 39.8675 35.5644C41.0466 36.9031 39.2889 38.2102 37.8047 38.3906V38.3841ZM50.6563 28.3883C50.4375 29.4252 49.2344 29.7489 48.0794 29.7489C46.1481 29.7494 44.2184 29.6376 42.3 29.4142C41.9653 29.3825 41.81 28.7952 42.1491 28.5283C42.7736 28.0372 43.8991 27.4444 45.4402 26.9905C47.7677 26.3047 49.1097 26.0302 50.2625 26.2587C50.5436 26.3145 50.6924 26.6164 50.7099 26.8056C50.787 27.3325 50.7688 27.8689 50.6563 28.3894V28.3883Z" fill="black"/>
</g>
</svg>
