<svg width="56" height="56" viewBox="0 0 56 56" fill="none" xmlns="http://www.w3.org/2000/svg">
<g id="clarity:list-solid" clip-path="url(#clip0_595_582)">
<path id="Vector" d="M43.5552 3.11108H12.4441C11.619 3.11108 10.8277 3.43886 10.2442 4.02231C9.66078 4.60575 9.33301 5.39708 9.33301 6.2222V49.7778C9.33301 50.6029 9.66078 51.3942 10.2442 51.9776C10.8277 52.5611 11.619 52.8889 12.4441 52.8889H43.5552C44.3803 52.8889 45.1717 52.5611 45.7551 51.9776C46.3386 51.3942 46.6663 50.6029 46.6663 49.7778V6.2222C46.6663 5.39708 46.3386 4.60575 45.7551 4.02231C45.1717 3.43886 44.3803 3.11108 43.5552 3.11108ZM20.2219 40.4444H17.1108V37.3333H20.2219V40.4444ZM20.2219 34.2222H17.1108V31.1111H20.2219V34.2222ZM20.2219 28H17.1108V24.8889H20.2219V28ZM20.2219 21.7778H17.1108V18.6666H20.2219V21.7778ZM20.2219 15.5555H17.1108V12.4444H20.2219V15.5555ZM38.8886 40.4444H23.333V37.3333H38.8886V40.4444ZM38.8886 34.2222H23.333V31.1111H38.8886V34.2222ZM38.8886 28H23.333V24.8889H38.8886V28ZM38.8886 21.7778H23.333V18.6666H38.8886V21.7778ZM38.8886 15.5555H23.333V12.4444H38.8886V15.5555Z" fill="#03052F"/>
</g>
<defs>
<clipPath id="clip0_595_582">
<rect width="56" height="56" fill="white"/>
</clipPath>
</defs>
</svg>
