<svg width="56" height="56" viewBox="0 0 56 56" fill="none" xmlns="http://www.w3.org/2000/svg">
<g id="fa:bank" clip-path="url(#clip0_594_546)">
<path id="Vector" d="M28 0L56 12V16H52.2667C52.2667 16.5417 52.0674 17.0104 51.6688 17.4062C51.2701 17.8021 50.7986 18 50.2542 18H5.74583C5.20139 18 4.72986 17.8021 4.33125 17.4062C3.93264 17.0104 3.73333 16.5417 3.73333 16H0V12L28 0ZM7.46667 20H14.9333V44H18.6667V20H26.1333V44H29.8667V20H37.3333V44H41.0667V20H48.5333V44H50.2542C50.7986 44 51.2701 44.1979 51.6688 44.5938C52.0674 44.9896 52.2667 45.4583 52.2667 46V48H3.73333V46C3.73333 45.4583 3.93264 44.9896 4.33125 44.5938C4.72986 44.1979 5.20139 44 5.74583 44H7.46667V20ZM53.9875 50C54.5319 50 55.0035 50.1979 55.4021 50.5938C55.8007 50.9896 56 51.4583 56 52V56H0V52C0 51.4583 0.199306 50.9896 0.597917 50.5938C0.996528 50.1979 1.46806 50 2.0125 50H53.9875Z" fill="#03052F"/>
</g>
<defs>
<clipPath id="clip0_594_546">
<rect width="56" height="56" fill="white"/>
</clipPath>
</defs>
</svg>
