<svg width="56" height="56" viewBox="0 0 56 56" fill="none" xmlns="http://www.w3.org/2000/svg">
<g id="fa:road" clip-path="url(#clip0_595_594)">
<path id="Vector" d="M32.5559 32.375V32.2L31.8318 18.2C31.8116 17.8208 31.701 17.4927 31.4999 17.2156C31.2987 16.9385 31.0674 16.8 30.8059 16.8H25.1938C24.9323 16.8 24.701 16.9385 24.4999 17.2156C24.2987 17.4927 24.1881 17.8208 24.168 18.2L23.4438 32.2V32.375C23.4237 32.725 23.5042 33.0167 23.6852 33.25C23.8662 33.4833 24.0775 33.6 24.3188 33.6H31.6809C31.9223 33.6 32.1335 33.4833 32.3145 33.25C32.4956 33.0167 32.576 32.725 32.5559 32.375ZM55.4568 52.8062C55.4568 54.9354 54.9941 56 54.0688 56H32.8274C33.0889 56 33.3102 55.8615 33.4912 55.5844C33.6723 55.3073 33.7527 54.9792 33.7326 54.6L33.1292 43.4C33.1091 43.0208 32.9984 42.6927 32.7973 42.4156C32.5961 42.1385 32.3648 42 32.1033 42H23.8964C23.6349 42 23.4036 42.1385 23.2025 42.4156C23.0013 42.6927 22.8907 43.0208 22.8706 43.4L22.2671 54.6C22.247 54.9792 22.3275 55.3073 22.5085 55.5844C22.6895 55.8615 22.9108 56 23.1723 56H1.9309C1.00561 56 0.542969 54.9354 0.542969 52.8062C0.542969 51.2313 0.804463 49.5396 1.32745 47.7313L13.9093 2.05625C14.0703 1.50208 14.3318 1.02083 14.6938 0.6125C15.0559 0.204167 15.4381 0 15.8404 0H26.0688C25.8073 0 25.576 0.138542 25.3749 0.415625C25.1737 0.692708 25.0631 1.02083 25.043 1.4L24.5904 9.8C24.5703 10.2083 24.6507 10.5437 24.8318 10.8062C25.0128 11.0687 25.2341 11.2 25.4956 11.2H30.5042C30.7657 11.2 30.9869 11.0687 31.168 10.8062C31.349 10.5437 31.4295 10.2083 31.4093 9.8L30.9568 1.4C30.9366 1.02083 30.826 0.692708 30.6249 0.415625C30.4237 0.138542 30.1924 0 29.9309 0H40.1593C40.5616 0 40.9438 0.204167 41.3059 0.6125C41.668 1.02083 41.9295 1.50208 42.0904 2.05625L54.6723 47.7313C55.1953 49.5396 55.4568 51.2313 55.4568 52.8062Z" fill="#03052F"/>
</g>
<defs>
<clipPath id="clip0_595_594">
<rect width="56" height="56" fill="white"/>
</clipPath>
</defs>
</svg>
