<svg width="56" height="56" viewBox="0 0 56 56" fill="none" xmlns="http://www.w3.org/2000/svg">
<g id="fluent-mdl2:health-solid">
<path id="Vector" d="M41.125 3.5C43.1849 3.5 45.1172 3.88281 46.9219 4.64844C48.7266 5.41406 50.2943 6.47135 51.625 7.82031C52.9557 9.16927 54.013 10.7461 54.7969 12.5508C55.5807 14.3555 55.9727 16.2878 55.9727 18.3477C55.9727 19.4049 55.8633 20.4531 55.6445 21.4922C55.4258 22.5312 55.0977 23.5339 54.6602 24.5H42L36.75 19.0312L28 27.7812L15.75 15.5312L7 24.5H1.33984C0.902344 23.5339 0.574219 22.5312 0.355469 21.4922C0.136719 20.4531 0.0273438 19.4049 0.0273438 18.3477C0.0273438 16.2878 0.410156 14.3555 1.17578 12.5508C1.94141 10.7461 2.9987 9.17839 4.34766 7.84766C5.69661 6.51693 7.27344 5.45964 9.07812 4.67578C10.8828 3.89193 12.8151 3.5 14.875 3.5C16.862 3.5 18.7578 3.8737 20.5625 4.62109C22.3672 5.36849 23.9805 6.44401 25.4023 7.84766L28 10.4727L30.5977 7.84766C32.0013 6.44401 33.6055 5.36849 35.4102 4.62109C37.2148 3.8737 39.1198 3.5 41.125 3.5ZM38.5 28H52.4453L52.0625 28.4375C51.9349 28.5833 51.7982 28.7383 51.6523 28.9023L28 52.5273L4.34766 28.9023C4.20182 28.7565 4.0651 28.6107 3.9375 28.4648C3.8099 28.319 3.68229 28.1641 3.55469 28H10.5L15.75 22.9688L28 35.2188L36.75 26.4688L38.5 28Z" fill="#03052F"/>
</g>
</svg>
