<svg width="56" height="56" viewBox="0 0 56 56" fill="none" xmlns="http://www.w3.org/2000/svg">
<g id="heroicons:user-20-solid">
<path id="Vector" d="M27.9998 22.4C30.2276 22.4 32.3642 21.515 33.9395 19.9397C35.5148 18.3644 36.3998 16.2278 36.3998 14C36.3998 11.7722 35.5148 9.63562 33.9395 8.06031C32.3642 6.485 30.2276 5.60001 27.9998 5.60001C25.772 5.60001 23.6354 6.485 22.0601 8.06031C20.4848 9.63562 19.5998 11.7722 19.5998 14C19.5998 16.2278 20.4848 18.3644 22.0601 19.9397C23.6354 21.515 25.772 22.4 27.9998 22.4ZM9.70178 40.5804C9.44184 41.2752 9.41316 42.0353 9.62001 42.7476C9.82685 43.46 10.2582 44.0865 10.8498 44.534C15.7535 48.3449 21.7893 50.4094 27.9998 50.4C34.4678 50.4 40.4262 48.2048 45.1666 44.52C46.3706 43.5876 46.8578 41.9916 46.309 40.572C44.8872 36.8705 42.3765 33.687 39.1082 31.4418C35.8399 29.1966 31.9677 27.9952 28.0025 27.9961C24.0373 27.997 20.1656 29.2002 16.8983 31.4469C13.6311 33.6936 11.1218 36.8782 9.70178 40.5804Z" fill="#03052F"/>
</g>
</svg>
