<svg width="56" height="56" viewBox="0 0 56 56" fill="none" xmlns="http://www.w3.org/2000/svg">
<g id="ic:baseline-directions-transit">
<path id="Vector" d="M28.0007 4.66663C17.6873 4.66663 9.33398 5.83329 9.33398 14V36.1666C9.33398 40.67 12.9973 44.3333 17.5007 44.3333L14.0007 47.8333V49H42.0006V47.8333L38.5007 44.3333C43.004 44.3333 46.6673 40.67 46.6673 36.1666V14C46.6673 5.83329 38.314 4.66663 28.0007 4.66663ZM17.5007 39.6666C15.564 39.6666 14.0007 38.1033 14.0007 36.1666C14.0007 34.23 15.564 32.6666 17.5007 32.6666C19.4373 32.6666 21.0007 34.23 21.0007 36.1666C21.0007 38.1033 19.4373 39.6666 17.5007 39.6666ZM25.6673 25.6666H14.0007V14H25.6673V25.6666ZM38.5007 39.6666C36.564 39.6666 35.0007 38.1033 35.0007 36.1666C35.0007 34.23 36.564 32.6666 38.5007 32.6666C40.4373 32.6666 42.0006 34.23 42.0006 36.1666C42.0006 38.1033 40.4373 39.6666 38.5007 39.6666ZM42.0006 25.6666H30.334V14H42.0006V25.6666Z" fill="#03052F"/>
</g>
</svg>
