<svg width="56" height="56" viewBox="0 0 56 56" fill="none" xmlns="http://www.w3.org/2000/svg">
<g id="ic:baseline-child-care">
<path id="Vector" d="M33.8327 27.4167C35.4435 27.4167 36.7493 26.1109 36.7493 24.5C36.7493 22.8892 35.4435 21.5834 33.8327 21.5834C32.2219 21.5834 30.916 22.8892 30.916 24.5C30.916 26.1109 32.2219 27.4167 33.8327 27.4167Z" fill="#03052F"/>
<path id="Vector_2" d="M22.1667 27.4167C23.7775 27.4167 25.0833 26.1109 25.0833 24.5C25.0833 22.8892 23.7775 21.5834 22.1667 21.5834C20.5558 21.5834 19.25 22.8892 19.25 24.5C19.25 26.1109 20.5558 27.4167 22.1667 27.4167Z" fill="#03052F"/>
<path id="Vector_3" d="M53.5273 29.54C53.6207 29.05 53.6673 28.5367 53.6673 28C53.6673 27.4633 53.6207 26.95 53.5273 26.46C53.2344 24.7377 52.4649 23.132 51.306 21.8247C50.1472 20.5174 48.6453 19.5608 46.9706 19.0633C45.7415 16.4793 44.0035 14.1698 41.8606 12.2733C38.174 8.98333 33.3207 7 28.0007 7C22.6807 7 17.8273 8.98333 14.1407 12.2733C11.994 14.1633 10.244 16.4733 9.03065 19.0633C7.35411 19.5573 5.85029 20.5129 4.6909 21.8208C3.53152 23.1287 2.7633 24.7363 2.47398 26.46C2.38065 26.95 2.33398 27.4633 2.33398 28C2.33398 28.5367 2.38065 29.05 2.47398 29.54C2.76693 31.2623 3.53643 32.868 4.69527 34.1753C5.85412 35.4826 7.35598 36.4392 9.03065 36.9367C10.2438 39.5045 11.9665 41.7987 14.094 43.68C17.7807 46.9933 22.6573 49 28.0007 49C33.344 49 38.2206 46.9933 41.9306 43.68C44.0306 41.8133 45.7806 39.5033 46.994 36.9367C48.6656 36.438 50.164 35.4805 51.3189 34.173C52.4737 32.8656 53.2388 31.2605 53.5273 29.54ZM44.334 32.6667C44.1007 32.6667 43.8906 32.62 43.6573 32.5967C43.1906 34.16 42.514 35.6067 41.6507 36.9367C38.734 41.3933 33.7173 44.3333 28.0007 44.3333C22.284 44.3333 17.2673 41.3933 14.3507 36.9367C13.4873 35.6067 12.8107 34.16 12.344 32.5967C12.1107 32.62 11.9007 32.6667 11.6673 32.6667C9.10065 32.6667 7.00065 30.5667 7.00065 28C7.00065 25.4333 9.10065 23.3333 11.6673 23.3333C11.9007 23.3333 12.1107 23.38 12.344 23.4033C12.8107 21.84 13.4873 20.3933 14.3507 19.0633C17.2673 14.6067 22.284 11.6667 28.0007 11.6667C33.7173 11.6667 38.734 14.6067 41.6507 19.0633C42.514 20.3933 43.1906 21.84 43.6573 23.4033C43.8906 23.38 44.1007 23.3333 44.334 23.3333C46.9007 23.3333 49.0006 25.4333 49.0006 28C49.0006 30.5667 46.9007 32.6667 44.334 32.6667ZM17.5007 32.6667C19.274 36.7967 23.3106 39.6667 28.0007 39.6667C32.6906 39.6667 36.7273 36.7967 38.5006 32.6667H17.5007Z" fill="#03052F"/>
</g>
</svg>
