<svg width="56" height="56" viewBox="0 0 56 56" fill="none" xmlns="http://www.w3.org/2000/svg">
<g id="ic:round-key">
<path id="Vector" d="M48.0429 23.3333H29.5162C28.3879 20.1379 26.1396 17.4598 23.1879 15.7952C20.2362 14.1305 16.7811 13.5922 13.4629 14.28C8.11954 15.3533 3.77954 19.6467 2.65954 24.9667C2.20618 27.0134 2.21809 29.1358 2.69441 31.1774C3.17072 33.2189 4.09928 35.1274 5.4116 36.7622C6.72391 38.397 8.38649 39.7163 10.2767 40.6229C12.1669 41.5294 14.2365 42 16.3329 42C19.2261 42.0001 22.048 41.1024 24.4093 39.4306C26.7707 37.7589 28.555 35.3955 29.5162 32.6667H30.3329L33.3429 35.6767C34.2529 36.5867 35.7229 36.5867 36.6329 35.6767L39.6662 32.6667L42.6762 35.6767C43.5862 36.5867 45.0795 36.5867 45.9895 35.6767L52.0329 29.5867C52.2503 29.3684 52.4224 29.1091 52.539 28.8239C52.6556 28.5387 52.7146 28.2333 52.7124 27.9251C52.7102 27.617 52.647 27.3124 52.5264 27.0289C52.4057 26.7453 52.23 26.4885 52.0095 26.2733L49.6995 24.01C49.2329 23.5667 48.6495 23.3333 48.0429 23.3333ZM16.3329 35C12.4829 35 9.33287 31.85 9.33287 28C9.33287 24.15 12.4829 21 16.3329 21C20.1829 21 23.3329 24.15 23.3329 28C23.3329 31.85 20.1829 35 16.3329 35Z" fill="#03052F"/>
</g>
</svg>
