<svg width="137" height="21" viewBox="0 0 137 21" fill="none" xmlns="http://www.w3.org/2000/svg">
<g id="wordmark-white 2" clip-path="url(#clip0_684_669)">
<path id="Vector" d="M37.6033 20.466C33.6092 20.466 30.8335 19.1165 30.8335 15.6884C30.8335 12.1197 34.0953 11.3586 37.1524 11.1507L42.464 10.8054C43.9925 10.6998 44.5138 10.4248 44.5138 9.24482C44.5138 8.06482 43.5065 7.5148 40.5901 7.5148C38.6266 7.5148 37.5297 7.63312 36.7974 9.27999C36.7428 9.40394 36.6532 9.50925 36.5397 9.58308C36.4258 9.65692 36.2935 9.69606 36.1579 9.69571H32.6403C32.5347 9.69491 32.4308 9.66997 32.3365 9.62274C32.2421 9.57554 32.1596 9.5073 32.0957 9.42332C32.0317 9.33931 31.9879 9.24181 31.9677 9.13824C31.9473 9.03469 31.9509 8.92785 31.9783 8.8259C32.9856 5.09085 37.0181 4.63995 40.8363 4.63995C47.9898 4.63995 49.5184 6.87843 49.5184 9.62536V19.2188C49.5174 19.4015 49.4445 19.5763 49.315 19.7052C49.1855 19.834 49.0102 19.9064 48.8276 19.9064H45.4444C45.2653 19.903 45.0948 19.83 44.9685 19.7028C44.8425 19.5756 44.7712 19.4043 44.7696 19.2252V18.7807C44.7709 18.7431 44.7613 18.7059 44.7421 18.6736C44.7226 18.6413 44.6941 18.6153 44.6606 18.5988C44.6267 18.5822 44.5889 18.5758 44.5515 18.5803C44.5141 18.5847 44.4786 18.6 44.4498 18.624C42.659 20.0343 39.7298 20.466 37.6033 20.466ZM41.7349 13.3668L38.8185 13.6098C37.0469 13.7474 36.1803 14.2334 36.1803 15.5477C36.1803 16.862 37.4658 17.5879 39.3333 17.5879C41.8692 17.5879 44.6801 16.4111 44.6801 13.952C44.6801 13.8224 44.6507 13.6945 44.5944 13.5777C44.5381 13.461 44.4562 13.3584 44.3549 13.2776C44.2535 13.1968 44.1352 13.1399 44.0088 13.1111C43.8825 13.0822 43.7511 13.0822 43.6248 13.111C43.0028 13.2473 42.3706 13.3329 41.7349 13.3668Z" fill="#FAFAFA"/>
<path id="Vector_2" d="M60.1735 20.4661C56.0163 20.4661 52.6074 18.445 51.8336 14.4925C50.8422 9.43038 54.9067 4.8511 60.0776 4.81272C62.9396 4.79354 65.0598 5.66335 66.0415 6.99364H66.0767V0.684341C66.0767 0.594203 66.0946 0.504955 66.1291 0.421716C66.1637 0.33848 66.2145 0.262898 66.2781 0.19931C66.3421 0.135722 66.4179 0.0853809 66.5014 0.0511786C66.5848 0.0169762 66.674 -0.000413731 66.7642 7.47221e-06H70.4257C70.5159 -0.000413731 70.6051 0.0169762 70.6886 0.0511786C70.772 0.0853809 70.8478 0.135722 70.9118 0.19931C70.9754 0.262898 71.0263 0.33848 71.0608 0.421716C71.0953 0.504955 71.1133 0.594203 71.1133 0.684341V19.2317C71.1133 19.3219 71.0953 19.4111 71.0608 19.4943C71.0263 19.5776 70.9754 19.6531 70.9118 19.7168C70.8478 19.7803 70.772 19.8307 70.6886 19.8649C70.6051 19.8991 70.5159 19.9165 70.4257 19.916H66.9369C66.7553 19.916 66.5813 19.844 66.4531 19.7156C66.3245 19.5873 66.2526 19.4132 66.2526 19.2317V18.0805H66.2174C64.5961 19.948 62.4663 20.4661 60.1735 20.4661ZM61.5646 16.9005C64.0621 16.9005 66.2526 15.4455 66.2526 12.641C66.2526 9.8365 64.0621 8.38149 61.5646 8.38149C59.0671 8.38149 56.8414 9.83331 56.8414 12.641C56.8414 15.4487 59.0287 16.9005 61.5646 16.9005Z" fill="#FAFAFA"/>
<path id="Vector_3" d="M79.2388 8.06807H79.306C81.1096 5.82959 82.5358 4.81268 85.3819 4.81268C85.772 4.81268 86.1973 4.81268 86.6098 4.87024C86.778 4.8877 86.9338 4.96711 87.0466 5.093C87.1595 5.2189 87.2216 5.38228 87.2206 5.55138V8.61489C87.2209 8.71719 87.1986 8.81828 87.1547 8.91069C87.1106 9.00311 87.0467 9.08453 86.9673 9.14896C86.8877 9.2134 86.795 9.25919 86.6955 9.28298C86.5961 9.30678 86.4925 9.30796 86.3924 9.28644C85.7547 9.13061 85.1014 9.04692 84.4449 9.03701C81.0424 9.03701 79.4083 10.6999 79.4083 13.5747V19.2285C79.4083 19.3186 79.3904 19.4079 79.3559 19.4911C79.3214 19.5743 79.2705 19.6499 79.2069 19.7135C79.1429 19.7771 79.0671 19.8274 78.9837 19.8616C78.9002 19.8958 78.811 19.9132 78.7208 19.9128H75.1009C75.0107 19.9132 74.9215 19.8958 74.838 19.8616C74.7545 19.8274 74.6788 19.7771 74.6148 19.7135C74.5512 19.6499 74.5003 19.5743 74.4658 19.4911C74.4312 19.4079 74.4133 19.3186 74.4133 19.2285V5.88076C74.4133 5.69842 74.4859 5.52353 74.6148 5.39459C74.7437 5.26565 74.9186 5.19322 75.1009 5.19322H78.5513C78.7336 5.19322 78.9085 5.26565 79.0374 5.39459C79.1663 5.52353 79.2388 5.69842 79.2388 5.88076V8.06807Z" fill="#FAFAFA"/>
<path id="Vector_4" d="M97.5721 4.63995C103.616 4.63995 107.642 6.99355 107.642 12.5706C107.642 18.1476 103.61 20.466 97.5721 20.466C91.5346 20.466 87.5022 18.1124 87.5022 12.5706C87.5022 7.02873 91.5315 4.63995 97.5721 4.63995ZM97.5721 17.0379C100.664 17.0379 102.468 15.439 102.468 12.561C102.468 9.68292 100.664 8.05843 97.5721 8.05843C94.4798 8.05843 92.6763 9.65734 92.6763 12.561C92.6763 15.4646 94.483 17.0379 97.5721 17.0379Z" fill="#FAFAFA"/>
<path id="Vector_5" d="M115.441 0.703355V2.78381C115.441 2.87645 115.423 2.96818 115.388 3.05373C115.352 3.13928 115.301 3.21698 115.235 3.28231C115.17 3.34767 115.092 3.39941 115.007 3.43456C114.922 3.4697 114.83 3.48758 114.738 3.48716H111.028C110.936 3.48758 110.844 3.4697 110.759 3.43456C110.674 3.39941 110.596 3.34767 110.531 3.28231C110.465 3.21698 110.414 3.13928 110.378 3.05373C110.343 2.96818 110.325 2.87645 110.325 2.78381V0.703355C110.325 0.610711 110.343 0.518981 110.378 0.433433C110.414 0.347885 110.465 0.270202 110.531 0.204847C110.596 0.139493 110.674 0.0877531 110.759 0.0526004C110.844 0.0174479 110.936 -0.000425227 111.028 7.67986e-06H114.738C114.83 -0.000425227 114.922 0.0174479 115.007 0.0526004C115.092 0.0877531 115.17 0.139493 115.235 0.204847C115.301 0.270202 115.352 0.347885 115.388 0.433433C115.423 0.518981 115.441 0.610711 115.441 0.703355ZM115.441 5.29639V19.7627C115.441 19.8553 115.423 19.9471 115.388 20.0326C115.352 20.1182 115.301 20.1959 115.235 20.2612C115.17 20.3266 115.092 20.3783 115.007 20.4135C114.922 20.4486 114.83 20.4665 114.738 20.4661H111.028C110.936 20.4665 110.844 20.4486 110.759 20.4135C110.674 20.3783 110.596 20.3266 110.531 20.2612C110.465 20.1959 110.414 20.1182 110.378 20.0326C110.343 19.9471 110.325 19.8553 110.325 19.7627V5.29639C110.325 5.109 110.399 4.92925 110.531 4.79673C110.663 4.66422 110.841 4.58977 111.028 4.58977H114.738C114.924 4.58977 115.103 4.66422 115.235 4.79673C115.367 4.92925 115.441 5.109 115.441 5.29639Z" fill="#FAFAFA"/>
<path id="Vector_6" d="M127.228 17.4536C129.521 17.4536 130.839 16.9324 130.839 15.8547C130.839 15.0233 130.423 14.6779 127.993 14.3645L123.436 13.7506C120.276 13.3348 118.438 12.4011 118.438 9.59338C118.438 5.60889 122.64 4.63995 126.771 4.63995C133.08 4.63995 135.05 6.41475 135.642 8.77474C135.667 8.87598 135.668 8.98148 135.646 9.08333C135.624 9.18518 135.579 9.28067 135.515 9.36259C135.45 9.44452 135.368 9.51078 135.274 9.55629C135.18 9.60182 135.078 9.62542 134.974 9.62536H130.762C130.629 9.62705 130.498 9.58699 130.389 9.51072C130.279 9.43445 130.196 9.32582 130.151 9.20005C129.665 8.01686 128.185 7.6523 126.87 7.6523C125.556 7.6523 123.609 7.79301 123.609 9.25121C123.609 9.90997 123.989 10.396 126.141 10.6039L129.614 10.9844C134.731 11.5025 136.352 12.9575 136.352 15.487C136.361 19.8424 131.29 20.466 126.953 20.466C121.674 20.466 118.751 19.1005 118.115 16.1809C118.092 16.0801 118.093 15.9756 118.116 15.875C118.139 15.7744 118.185 15.6803 118.249 15.5996C118.314 15.5189 118.395 15.4537 118.488 15.4088C118.581 15.3638 118.683 15.3403 118.786 15.3399H122.995C123.133 15.3388 123.269 15.3802 123.383 15.4585C123.498 15.5368 123.585 15.6483 123.634 15.778C123.995 16.8077 124.964 17.4536 127.228 17.4536Z" fill="#FAFAFA"/>
<path id="Vector_7" d="M23.827 19.7114L23.7822 19.737C23.6591 19.8234 23.531 19.9024 23.3985 19.9736C23.2032 20.0787 23.0001 20.1685 22.7909 20.2422C22.4219 20.3648 22.0349 20.4243 21.6461 20.4181H19.5899C19.2896 20.4181 19.0017 20.2988 18.7894 20.0865C18.5771 19.8742 18.4578 19.5863 18.4578 19.2861C18.4578 18.9858 18.5771 18.6979 18.7894 18.4856C19.0017 18.2733 19.2896 18.154 19.5899 18.154H21.6013C21.9132 18.1542 22.2181 18.0618 22.4775 17.8886L22.5191 17.8566C22.717 17.7186 22.8859 17.5429 23.0159 17.3396C23.1458 17.1363 23.2345 16.9093 23.2766 16.6717C23.3188 16.434 23.3137 16.1904 23.2616 15.9548C23.2096 15.7191 23.1115 15.4961 22.9732 15.2984L14.3454 3.03791C14.0567 2.65323 13.6304 2.39504 13.1557 2.31732C12.681 2.23959 12.1946 2.34835 11.7982 2.62086C11.4019 2.89337 11.1262 3.30855 11.0287 3.77959C10.9313 4.25063 11.0198 4.74111 11.2755 5.14848L11.3011 5.18366L17.6648 14.2207L17.7319 14.3198C18.0515 14.7992 18.2542 15.3468 18.3235 15.9187C18.4135 16.6079 18.3119 17.3085 18.0298 17.9437C17.7478 18.5789 17.2962 19.1241 16.7246 19.5195L16.6958 19.5387C15.9679 20.0458 15.0867 20.285 14.2023 20.2156C13.3178 20.1463 12.4847 19.7726 11.8447 19.1581C11.6628 18.9875 11.4998 18.7978 11.3587 18.5921L8.48063 14.5149L8.43266 14.4541L5.95435 10.9365C5.93884 10.916 5.91879 10.8994 5.89576 10.8879C5.87274 10.8764 5.84735 10.8704 5.82164 10.8704C5.79593 10.8704 5.77054 10.8764 5.74751 10.8879C5.72449 10.8994 5.70444 10.916 5.68893 10.9365L2.60303 15.3495C2.39167 15.6546 2.27996 16.0177 2.28325 16.3888C2.28387 16.542 2.3032 16.6945 2.34081 16.8429C2.44778 17.2501 2.69312 17.6074 3.03473 17.8534L3.07311 17.879C3.1991 17.9653 3.33559 18.0351 3.47923 18.0869C3.60618 18.1336 3.74046 18.1574 3.87576 18.1572H7.88903C8.13142 18.1569 8.36758 18.234 8.56313 18.3772C8.75871 18.5204 8.90344 18.7223 8.97629 18.9535C9.01137 19.063 9.02864 19.1775 9.02745 19.2925C9.02726 19.5807 8.91742 19.858 8.72027 20.0682C8.52313 20.2784 8.25339 20.4058 7.96578 20.4245H7.86664C7.41895 20.4245 6.37006 20.4629 5.34996 20.4629H5.2924C4.37782 20.4629 3.42807 20.5044 2.56465 20.1431C2.42864 20.0898 2.29619 20.0279 2.16812 19.9576C2.02178 19.882 1.88075 19.7965 1.74601 19.7018C1.23424 19.3445 0.810891 18.8749 0.508288 18.329C0.205684 17.7831 0.0318297 17.1753 0 16.5519C0 16.4944 0 16.4368 0 16.3792C0.00222403 15.5444 0.26124 14.7306 0.741895 14.048L5.04616 7.93378C5.13695 7.80638 5.2569 7.70255 5.39594 7.63089C5.53502 7.55922 5.68918 7.52184 5.84562 7.52184C6.00206 7.52184 6.15622 7.55922 6.2953 7.63089C6.43434 7.70255 6.55429 7.80638 6.64508 7.93378L13.239 17.3034C13.3547 17.4726 13.5026 17.6174 13.6742 17.7295C13.8459 17.8416 14.0379 17.9188 14.2394 17.9566C14.4409 17.9945 14.6479 17.9923 14.8485 17.9502C15.0491 17.9081 15.2395 17.8268 15.4087 17.7111C15.5779 17.5954 15.7227 17.4475 15.8348 17.2759C15.9469 17.1042 16.0241 16.9122 16.0619 16.7107C16.0998 16.5092 16.0976 16.3023 16.0555 16.1016C16.0134 15.901 15.9321 15.7106 15.8164 15.5414L9.42079 6.46598C9.41202 6.44782 9.40131 6.43065 9.38881 6.41482V6.39243C9.0524 5.89258 8.83373 5.32292 8.74924 4.72637C8.68263 4.28497 8.68801 3.83571 8.76523 3.39607C8.85941 2.86408 9.05825 2.35608 9.35031 1.90155C9.64233 1.44702 10.0217 1.05501 10.4665 0.748273C11.3639 0.123816 12.4713 -0.121955 13.5486 0.0641905C14.626 0.250336 15.5867 0.853411 16.2226 1.7428L24.8567 13.9969C25.1655 14.4393 25.3839 14.9383 25.4993 15.4654C25.6147 15.9924 25.6249 16.5371 25.5292 17.0681C25.4335 17.599 25.2339 18.1059 24.9418 18.5595C24.6497 19.0131 24.2708 19.4046 23.827 19.7114Z" fill="#FAFAFA"/>
</g>
<defs>
<clipPath id="clip0_684_669">
<rect width="136.547" height="20.4661" fill="white"/>
</clipPath>
</defs>
</svg>
