<svg width="56" height="56" viewBox="0 0 56 56" fill="none" xmlns="http://www.w3.org/2000/svg">
<g id="majesticons:community">
<g id="Group">
<path id="Vector" fill-rule="evenodd" clip-rule="evenodd" d="M14 14C14 12.1435 14.7375 10.363 16.0503 9.05025C17.363 7.7375 19.1435 7 21 7H44.3333C46.1898 7 47.9703 7.7375 49.2831 9.05025C50.5958 10.363 51.3333 12.1435 51.3333 14V42C51.3333 43.8565 50.5958 45.637 49.2831 46.9497C47.9703 48.2625 46.1898 49 44.3333 49H36.1433C36.9246 47.6439 37.335 46.106 37.3333 44.541V31.8523C37.3311 30.6485 37.088 29.4573 36.6183 28.3489C36.1487 27.2405 35.462 26.2373 34.5987 25.3983L25.2653 16.2727C22.2133 13.286 17.57 12.803 14 14.819V14ZM39.6667 16.3333C39.6667 15.7145 39.9125 15.121 40.3501 14.6834C40.7877 14.2458 41.3812 14 42 14C42.6188 14 43.2147 14.2458 43.6522 14.6834C44.0898 15.121 44.3357 15.7145 44.3357 16.3333C44.3357 16.9522 44.0898 17.5457 43.6522 17.9832C43.2147 18.4208 42.6212 18.6667 42.0023 18.6667C41.3835 18.6667 40.7877 18.4208 40.3501 17.9832C39.9125 17.5457 39.6667 16.9522 39.6667 16.3333ZM32.6667 14C32.0478 14 31.4543 14.2458 31.0168 14.6834C30.5792 15.121 30.3333 15.7145 30.3333 16.3333C30.3333 16.9522 30.5792 17.5457 31.0168 17.9832C31.4543 18.4208 32.0478 18.6667 32.6667 18.6667H32.669C33.2878 18.6667 33.8813 18.4208 34.3189 17.9832C34.7565 17.5457 35.0023 16.9522 35.0023 16.3333C35.0023 15.7145 34.7565 15.121 34.3189 14.6834C33.8813 14.2458 33.2878 14 32.669 14H32.6667ZM39.6667 28C39.6667 27.3812 39.9125 26.7877 40.3501 26.3501C40.7877 25.9125 41.3812 25.6667 42 25.6667C42.6188 25.6667 43.2147 25.9125 43.6522 26.3501C44.0898 26.7877 44.3357 27.3812 44.3357 28C44.3357 28.6188 44.0898 29.2123 43.6522 29.6499C43.2147 30.0875 42.6212 30.3333 42.0023 30.3333C41.3835 30.3333 40.7877 30.0875 40.3501 29.6499C39.9125 29.2123 39.6667 28.6188 39.6667 28ZM42 37.3333C41.3812 37.3333 40.7877 37.5792 40.3501 38.0167C39.9125 38.4543 39.6667 39.0478 39.6667 39.6667C39.6667 40.2855 39.9125 40.879 40.3501 41.3166C40.7877 41.7542 41.3812 42 42 42C42.6188 42 43.2147 41.7542 43.6522 41.3166C44.0898 40.879 44.3357 40.2855 44.3357 39.6667C44.3357 39.0478 44.0898 38.4543 43.6522 38.0167C43.2147 37.5792 42.6188 37.3333 42 37.3333Z" fill="#03052F"/>
<path id="Vector_2" fill-rule="evenodd" clip-rule="evenodd" d="M13.718 20.3164C15.0307 19.0041 16.8108 18.2668 18.667 18.2668C20.5231 18.2668 22.3033 19.0041 23.616 20.3164L30.616 27.3164C31.9288 28.6288 32.6666 30.409 32.667 32.2654V42C32.667 43.8565 31.9295 45.637 30.6167 46.9498C29.304 48.2625 27.5235 49 25.667 49H21.0003V42C21.0003 41.3812 20.7545 40.7877 20.3169 40.3501C19.8793 39.9125 19.2858 39.6667 18.667 39.6667C18.0482 39.6667 17.4547 39.9125 17.0171 40.3501C16.5795 40.7877 16.3337 41.3812 16.3337 42V49H11.667C9.81048 49 8.03 48.2625 6.71724 46.9498C5.40449 45.637 4.66699 43.8565 4.66699 42V32.2654C4.66801 30.4098 5.40572 28.6306 6.71799 27.3187L13.718 20.3187V20.3164Z" fill="#03052F"/>
</g>
</g>
</svg>
