<svg width="56" height="56" viewBox="0 0 56 56" fill="none" xmlns="http://www.w3.org/2000/svg">
<g id="material-symbols:app-promo">
<path id="Vector" d="M37.3337 25.6667L28.0003 35L18.667 25.6667L21.9337 22.4L25.667 26.0167V16.3333H30.3337V26.0167L34.067 22.4L37.3337 25.6667ZM23.3337 46.6667H32.667V44.3333H23.3337V46.6667ZM16.3337 53.6667C15.0503 53.6667 13.9513 53.2093 13.0367 52.2947C12.122 51.38 11.6654 50.2818 11.667 49V6.99998C11.667 5.71665 12.1243 4.61765 13.039 3.70298C13.9537 2.78832 15.0519 2.33176 16.3337 2.33332H39.667C40.9503 2.33332 42.0493 2.79065 42.964 3.70532C43.8787 4.61998 44.3352 5.71821 44.3337 6.99998V49C44.3337 50.2833 43.8763 51.3823 42.9617 52.297C42.047 53.2117 40.9488 53.6682 39.667 53.6667H16.3337ZM16.3337 37.3333H39.667V14H16.3337V37.3333Z" fill="#03052F"/>
</g>
</svg>
