<svg width="56" height="56" viewBox="0 0 56 56" fill="none" xmlns="http://www.w3.org/2000/svg">
<g id="ph:phone-fill">
<path id="Vector" d="M50.7238 38.2987C50.3337 41.2629 48.878 43.9837 46.6286 45.9529C44.3791 47.9222 41.4897 49.0053 38.5 49C21.1313 49 7.00002 34.8687 7.00002 17.5C6.99466 14.5103 8.07777 11.6209 10.0471 9.37144C12.0163 7.12198 14.7371 5.66628 17.7013 5.27623C18.4508 5.18471 19.2099 5.33806 19.8651 5.71338C20.5204 6.0887 21.0366 6.66588 21.3369 7.35873L25.9569 17.6728V17.699C26.1868 18.2294 26.2817 18.8085 26.2332 19.3845C26.1848 19.9605 25.9944 20.5155 25.6791 21C25.6397 21.059 25.5981 21.1137 25.5544 21.1684L21 26.5672C22.6385 29.8965 26.121 33.3484 29.4941 34.9912L34.8185 30.4609C34.8707 30.417 34.9255 30.3761 34.9825 30.3384C35.4666 30.0156 36.0235 29.8185 36.603 29.765C37.1824 29.7115 37.766 29.8034 38.301 30.0322L38.3294 30.0453L48.6347 34.6631C49.3288 34.9623 49.9074 35.4781 50.2839 36.1335C50.6605 36.7888 50.8148 37.5484 50.7238 38.2987Z" fill="#03052F"/>
</g>
</svg>
