<svg width="56" height="56" viewBox="0 0 56 56" fill="none" xmlns="http://www.w3.org/2000/svg">
<g id="shield-checkmark">
<path id="Vector" d="M52.3983 12.18C52.3736 11.7891 52.2184 11.4178 51.9577 11.1255C51.6969 10.8332 51.3456 10.6368 50.96 10.5678C41.4991 8.87033 37.5496 7.64314 28.7208 3.65533C28.4943 3.55295 28.2486 3.5 28 3.5C27.7515 3.5 27.5058 3.55295 27.2793 3.65533C18.4505 7.64314 14.501 8.87033 5.04005 10.5678C4.65446 10.6368 4.30318 10.8332 4.04241 11.1255C3.78165 11.4178 3.62649 11.7891 3.60177 12.18C3.18067 18.8639 4.07864 25.0917 6.2738 30.6906C8.0714 35.2576 10.7317 39.4356 14.1094 42.9964C19.9577 49.2013 26.1669 51.8963 27.3515 52.3731C27.7724 52.5434 28.243 52.5434 28.664 52.3731C29.8485 51.8963 36.0577 49.2013 41.906 42.9964C45.2782 39.4343 47.9333 35.2564 49.7263 30.6906C51.9215 25.0917 52.8194 18.8639 52.3983 12.18ZM38.0702 20.3952L25.9515 34.3952C25.7956 34.5757 25.6045 34.7225 25.3899 34.8265C25.1753 34.9305 24.9417 34.9896 24.7035 35H24.6313C24.1733 35.0001 23.7335 34.8207 23.4063 34.5002L18.025 29.2283C17.8609 29.0674 17.73 28.8758 17.6399 28.6643C17.5498 28.4529 17.5022 28.2258 17.4998 27.9959C17.4951 27.5317 17.675 27.0847 17.9999 26.7531C18.3248 26.4216 18.7681 26.2327 19.2323 26.2279C19.6964 26.2232 20.1435 26.4031 20.475 26.728L24.5219 30.6972L35.4266 18.1049C35.577 17.9311 35.7601 17.7886 35.9656 17.6856C36.171 17.5826 36.3947 17.521 36.624 17.5045C36.8532 17.4879 37.0835 17.5167 37.3016 17.5891C37.5197 17.6615 37.7214 17.7762 37.8952 17.9266C38.069 18.077 38.2115 18.2601 38.3145 18.4656C38.4175 18.671 38.479 18.8947 38.4956 19.124C38.5122 19.3532 38.4834 19.5834 38.411 19.8015C38.3385 20.0197 38.2239 20.2214 38.0735 20.3952H38.0702Z" fill="#202AE0"/>
</g>
</svg>
