<svg width="56" height="56" viewBox="0 0 56 56" fill="none" xmlns="http://www.w3.org/2000/svg">
<g id="solar:home-bold">
<g id="Group">
<path id="Vector" d="M43.166 7H37.3327C37.0233 7 36.7265 7.12292 36.5077 7.34171C36.2889 7.5605 36.166 7.85725 36.166 8.16667V8.30433L44.3327 14.8377V8.16667C44.3327 7.85725 44.2098 7.5605 43.991 7.34171C43.7722 7.12292 43.4754 7 43.166 7Z" fill="#03052F"/>
<path id="Vector_2" fill-rule="evenodd" clip-rule="evenodd" d="M25.082 22.1667C25.082 21.3931 25.3893 20.6513 25.9363 20.1043C26.4833 19.5573 27.2251 19.25 27.9987 19.25C28.7722 19.25 29.5141 19.5573 30.0611 20.1043C30.6081 20.6513 30.9154 21.3931 30.9154 22.1667C30.9154 22.9402 30.6081 23.6821 30.0611 24.2291C29.5141 24.776 28.7722 25.0833 27.9987 25.0833C27.2251 25.0833 26.4833 24.776 25.9363 24.2291C25.3893 23.6821 25.082 22.9402 25.082 22.1667Z" fill="#03052F"/>
<path id="Vector_3" fill-rule="evenodd" clip-rule="evenodd" d="M48.416 25.5733L50.2407 27.0339C50.6039 27.317 51.0641 27.4455 51.5215 27.3915C51.9788 27.3376 52.3964 27.1055 52.6838 26.7457C52.9712 26.3858 53.1051 25.9272 53.0566 25.4693C53.0081 25.0113 52.7811 24.5909 52.4247 24.2993L33.4664 9.13261C31.9147 7.89096 29.9866 7.21448 27.9994 7.21448C26.0121 7.21448 24.084 7.89096 22.5323 9.13261L3.57402 24.2993C3.21138 24.5892 2.97876 25.0113 2.92735 25.4727C2.87593 25.9342 3.00992 26.3971 3.29985 26.7598C3.58977 27.1224 4.01188 27.355 4.47332 27.4064C4.93475 27.4579 5.39771 27.3239 5.76035 27.0339L7.58268 25.5733V49.5833H4.66602C4.20189 49.5833 3.75677 49.7676 3.42858 50.0958C3.10039 50.424 2.91602 50.8691 2.91602 51.3333C2.91602 51.7974 3.10039 52.2425 3.42858 52.5707C3.75677 52.8989 4.20189 53.0833 4.66602 53.0833H51.3327C51.7968 53.0833 52.2419 52.8989 52.5701 52.5707C52.8983 52.2425 53.0827 51.7974 53.0827 51.3333C53.0827 50.8691 52.8983 50.424 52.5701 50.0958C52.2419 49.7676 51.7968 49.5833 51.3327 49.5833H48.416V25.5733ZM21.5827 22.1666C21.5827 20.4648 22.2587 18.8327 23.4621 17.6293C24.6654 16.426 26.2975 15.7499 27.9994 15.7499C29.7012 15.7499 31.3333 16.426 32.5366 17.6293C33.74 18.8327 34.416 20.4648 34.416 22.1666C34.416 23.8684 33.74 25.5005 32.5366 26.7039C31.3333 27.9072 29.7012 28.5833 27.9994 28.5833C26.2975 28.5833 24.6654 27.9072 23.4621 26.7039C22.2587 25.5005 21.5827 23.8684 21.5827 22.1666ZM28.116 30.9166C29.6654 30.9166 31.0024 30.9166 32.0734 31.0613C33.2214 31.2153 34.3204 31.5629 35.2117 32.4543C36.103 33.3456 36.4507 34.4446 36.6047 35.5926C36.74 36.5959 36.7494 37.8326 36.7494 39.2629V49.5833H33.2494V39.6666C33.2494 37.9679 33.2447 36.8666 33.1374 36.0593C33.0347 35.3009 32.8714 35.0629 32.736 34.9299C32.603 34.7969 32.365 34.6313 31.6067 34.5286C30.797 34.4213 29.698 34.4166 27.9994 34.4166C26.3007 34.4166 25.1994 34.4213 24.392 34.5286C23.6337 34.6313 23.3957 34.7969 23.2627 34.9299C23.1297 35.0629 22.964 35.3009 22.8614 36.0593C22.754 36.8689 22.7493 37.9679 22.7493 39.6666V49.5833H19.2493V39.5499C19.2493 38.0006 19.2494 36.6636 19.394 35.5926C19.548 34.4446 19.8957 33.3456 20.787 32.4543C21.6784 31.5629 22.7797 31.2153 23.9254 31.0613C24.9963 30.9166 26.3334 30.9166 27.885 30.9166H28.1137H28.116Z" fill="#03052F"/>
<path id="Vector_4" fill-rule="evenodd" clip-rule="evenodd" d="M25.082 22.1667C25.082 21.3931 25.3893 20.6513 25.9363 20.1043C26.4833 19.5573 27.2251 19.25 27.9987 19.25C28.7722 19.25 29.5141 19.5573 30.0611 20.1043C30.6081 20.6513 30.9154 21.3931 30.9154 22.1667C30.9154 22.9402 30.6081 23.6821 30.0611 24.2291C29.5141 24.776 28.7722 25.0833 27.9987 25.0833C27.2251 25.0833 26.4833 24.776 25.9363 24.2291C25.3893 23.6821 25.082 22.9402 25.082 22.1667Z" fill="#03052F"/>
</g>
</g>
</svg>
